<svg xmlns="http://www.w3.org/2000/svg" xmlns:xlink="http://www.w3.org/1999/xlink" viewBox="0 0 134.1 134.04"><defs><style>.cls-1{fill:url(#linear-gradient);}</style><linearGradient id="linear-gradient" x1="67.05" x2="67.05" y2="134.04" gradientUnits="userSpaceOnUse"><stop offset="0" stop-color="#ff9997"/><stop offset="1" stop-color="#ff6e81" stop-opacity="0.9"/></linearGradient></defs><title>Asset 32</title><g id="Layer_2" data-name="Layer 2"><g id="Layer_2-2" data-name="Layer 2"><path class="cls-1" d="M126.26,57.57c-2.58,0-5.13,0-7.69-.12a4.24,4.24,0,0,1-3.15-2c-1.82-4.49-3.29-9.12-5-14l7.85-7.17a7.83,7.83,0,0,0,.57-11l-3.63-4a7.85,7.85,0,0,0-11.08-.59l-8,7.24C91.2,23.63,87,21.47,82.5,19.8c-2.08-.79-2.86-1.63-2.79-3.87.09-2.69.1-5.39.09-8.11A7.84,7.84,0,0,0,72,0H66.54A7.84,7.84,0,0,0,58.7,7.83v9.42c-5.1,1.95-9.87,3.45-14.34,5.61-2.37,1.16-3.56.95-5.15-1S36,18.09,34.39,16.23a7.84,7.84,0,0,0-11.16-.61l-4.1,3.72a7.84,7.84,0,0,0-.6,11l7.18,8.16c-2.1,4.83-4.26,9-5.68,13.35-.83,2.55-2,3.14-4.38,3.06-2.6-.09-5.2-.1-7.83-.09A7.85,7.85,0,0,0,0,62.64v5.61a7.84,7.84,0,0,0,7.85,7.84c2.72,0,5.41,0,8.1.08,1,0,2.5.69,2.8,1.44,2,5.07,3.75,10.24,5.7,15.72l-7.11,6.5a7.83,7.83,0,0,0-.47,11.11c1.27,1.37,2.54,2.73,3.8,4.1a7.86,7.86,0,0,0,11.09.42l7.43-6.91c5.35,2.19,10.25,4,15,6.24A4.25,4.25,0,0,1,56.1,118c.11,2.72.12,5.45.12,8.22A7.82,7.82,0,0,0,64.05,134h5.29a7.83,7.83,0,0,0,7.84-7.81c0-2.49,0-5-.09-7.42s.66-3.71,3.29-4.4a51.25,51.25,0,0,0,9.7-3.76c2-1,3.18-.85,4.66.84,1.68,2,3.42,3.85,5.2,5.75a7.83,7.83,0,0,0,11,.4l4-3.68a7.83,7.83,0,0,0,.47-11c-2.41-2.63-4.72-5.18-6.93-7.6,2.11-4.94,4.24-9.47,6-14.14.77-2.09,1.72-2.85,3.91-2.79,2.64.07,5.29.08,7.94.08a7.84,7.84,0,0,0,7.8-7.84V65.41A7.84,7.84,0,0,0,126.26,57.57ZM67,99.77A32.76,32.76,0,1,1,99.8,67,32.75,32.75,0,0,1,67,99.77Z"/></g></g></svg>