<svg xmlns="http://www.w3.org/2000/svg" viewBox="0 0 182.78 123.52"><defs><style>.cls-1{fill:#ff6e83;}</style></defs><title>Asset 36</title><g id="Layer_2" data-name="Layer 2"><g id="Layer_2-2" data-name="Layer 2"><path class="cls-1" d="M84.93,89.63c-3.75,4.47-7.38,8.7-10.88,13.05-1.24,1.53-2.36,1.81-4.26,1.15-16.87-5.82-33.08-13-47.61-23.5C14.64,74.87,7.79,68.65,3.68,60.1-3,46.2-1.11,27.46,13.82,17.91c10.9-7,22.19-6.9,33.56-1l1.64.9c1.9-2.51,3.53-5.08,5.56-7.28C69.87-6,95.09-2.6,105.62,17.39a3.43,3.43,0,0,0,3,2.11c10.44,1.36,18.17,6.93,23.78,15.67.36.57.7,1.14,1.13,1.85a35,35,0,0,1,12.93-4.91C166.3,29,183.26,43.89,182.77,64c-.3,12.27-6.13,21.65-14.89,29.59-9.48,8.59-20.4,15-32,20.19-7.78,3.5-15.85,6.34-23.77,9.52a2.43,2.43,0,0,1-3.13-.82A203.61,203.61,0,0,1,86.27,91.82C85.85,91.14,85.43,90.46,84.93,89.63Zm3.69-65.76c2.77,4.12,3.92,8.35,3.09,13a3,3,0,0,1-.59,1.24C84.75,46,84.18,54.81,87.34,64.06,93,80.5,102.81,94.44,113.59,107.79a2.05,2.05,0,0,0,1.81.43c13.71-5.18,26.88-11.41,38.73-20.16,5.34-4,10.46-8.27,13.29-14.42,5.43-11.83,2-22.66-9.92-27.26-8.27-3.2-15.47-.35-21.65,5.41-2.76,2.56-5.19,5.47-7.78,8.21-.4.42-.84.78-1.43,1.32-.52-2.29-1-4.3-1.43-6.33-1.14-5.27-2.29-10.53-5.83-14.88a19.88,19.88,0,0,0-10-6.71c-.14,14.2-5.9,26.28-12.88,38.11-1.69-4.17-3.12-8.35-4.37-12.59a11,11,0,0,1,.7-8.41A37.51,37.51,0,0,0,95,44c1.84-6.23,2.15-12.41-.53-18.55-4-9.11-12.72-13.84-21.76-11.36-8.37,2.29-12.95,8.27-15,16.42C56.8,34.28,56,38.06,55,42.22c-2.69-2.89-5.12-5.48-7.53-8.08a27.1,27.1,0,0,0-9.07-6.61C27.13,22.6,12.23,29.2,12.33,44.66c.05,8,3.77,14.13,9.33,19.42,5.9,5.62,12.7,10,19.78,13.9A194.47,194.47,0,0,0,68.11,90.13c3.16-4.22,6.33-8.4,9.39-12.65a2.69,2.69,0,0,0,0-2c-.94-2.87-2.09-5.68-3-8.58-3.44-11.51-2.93-22.6,3.8-32.95A31.63,31.63,0,0,1,88.62,23.87Z"/></g></g></svg>