<svg xmlns="http://www.w3.org/2000/svg" viewBox="0 0 139.2 139.18"><defs><style>.cls-1{fill:#969696;}</style></defs><title>Asset 31</title><g id="Layer_2" data-name="Layer 2"><g id="Layer_2-2" data-name="Layer 2"><path class="cls-1" d="M139.2,69.6c.1,38.06-31,69.29-69.24,69.58S.15,108.07,0,69.8,31.21.05,69.5,0A69.77,69.77,0,0,1,139.2,69.6Zm-29.08,47.92c19.67-15.08,27.67-44.14,19.1-68.45C120,22.93,95.17,5.67,68,6.52A63.39,63.39,0,0,0,9.11,51.78c-7,24,1.91,53.3,19.93,65.5C48.07,84.22,92.74,86.33,110.12,117.52Z"/><path class="cls-1" d="M69.33,88.3A26.29,26.29,0,1,1,96,62.2,26.36,26.36,0,0,1,69.33,88.3Z"/></g></g></svg>