<svg xmlns="http://www.w3.org/2000/svg" viewBox="0 0 149.7 110.27"><defs><style>.cls-1{fill:#969696;stroke:#969696;stroke-miterlimit:10;}</style></defs><title>Asset 28</title><g id="Layer_2" data-name="Layer 2"><g id="Layer_2-2" data-name="Layer 2"><path class="cls-1" d="M128.68.5H21c-15,0-24.9,17-18.58,31.89l19,44.83c3.59,8.45,11.58,13.58,20.07,12.91l28.23-2.26L73.4,104.7c0,4.46,4.74,6.58,7.57,3.87a4.9,4.9,0,0,0,1-1.34L92.37,85.81,119.07,84c8.38-.67,15.54-6.87,18.06-15.65l11.11-38.66C152.39,15.21,142.53.5,128.68.5ZM84,52.3A78.65,78.65,0,0,1,76.55,59c-1.21,1-2.46,2-3.66,3l-6.48,5.61-1.32,1.14a77.06,77.06,0,0,0-9.85-8.15L53,59c-3.93-3-7.63-6-9.73-10.31a14.22,14.22,0,0,1,0-13.54,10.19,10.19,0,0,1,9.07-5.75,10.45,10.45,0,0,1,7.17,3A30.51,30.51,0,0,1,62,35.07c.4.5.82,1,1.27,1.52l1.82,2.12,1.66-2.26c.21-.28.42-.58.63-.88.43-.61.87-1.23,1.33-1.78s.87-1,1.3-1.43c2.22-2.21,4.4-3.26,6.76-3.26a9.33,9.33,0,0,1,2.17.27c4.88,1.16,7.8,4.14,8.91,9.1A14.6,14.6,0,0,1,85,51.23C84.68,51.6,84.37,52,84,52.3Zm32.13-10c-3.42,3.63-7.53,6.61-11.32,9.88-3.12,2.69-6.23,5.39-9.43,8.17a53.43,53.43,0,0,0-8.66-7.74A16.71,16.71,0,0,0,90,38c-1.29-5.75-4.83-9.42-10.57-10.79a10.58,10.58,0,0,0-9.56,2.28,16.79,16.79,0,0,1,2-7A12.3,12.3,0,0,1,91.6,19.13C93,20.44,94.13,22,95.46,23.55c.65-.88,1.3-1.87,2.06-2.78,3.25-3.87,7.12-6.41,12.44-5.14,5.74,1.36,9.28,5,10.57,10.78A16.81,16.81,0,0,1,116.17,42.25Z"/></g></g></svg>