<svg xmlns="http://www.w3.org/2000/svg" viewBox="0 0 390.8 289.63"><defs><style>.cls-1{fill:#969696;stroke:#969696;stroke-miterlimit:10;}</style></defs><title>Asset 43</title><g id="Layer_2" data-name="Layer 2"><g id="Layer_1-2" data-name="Layer 1"><path class="cls-1" d="M196.12.52q82.77,0,165.54,0c22.39,0,28.56,6,28.58,28.08q.12,115.57,0,231.16c0,22.83-6.46,29.29-29.26,29.3q-165.55.1-331.09,0C7,289.07.59,282.63.56,259.84Q.44,144.26.56,28.68C.59,6.59,6.74.57,29.08.54Q112.6.43,196.12.52ZM368.66,109.06c0-27.57-.46-50.37.18-73.14.35-12.7-5.16-16.31-17-16.07-27.85.55-55.71.17-83.57.17H39.91c-8.58,0-17.71-1-17.7,12q.06,82.08,0,164.16c0,8.65,3.51,9.65,9.73,4.46,8.78-7.33,17.48-14.76,26.22-22.14,28.12-23.75,55.93-47.88,84.46-71.12,19.57-15.93,34.65-15.32,53.76,0,3.1,2.5,6.16,5.07,9.44,7.3,13.58,9.19,23,8.4,34.32-3.48C251.77,99,263.17,86.48,274.44,73.88c18.07-20.19,28.71-21.33,49.18-4.12C337.62,81.51,351.19,93.77,368.66,109.06Z"/><path class="cls-1" d="M115.76,85c0,18.12-15.12,33.34-33.11,33.35-17.66,0-33-15.44-33.28-33.5C49.1,67.31,65,51.64,82.87,51.74A32.71,32.71,0,0,1,115.76,85Z"/></g></g></svg>