<svg xmlns="http://www.w3.org/2000/svg" xmlns:xlink="http://www.w3.org/1999/xlink" viewBox="0 0 760.1 662.68"><defs><style>.cls-1{fill:url(#linear-gradient);}.cls-2{fill:url(#linear-gradient-2);}</style><linearGradient id="linear-gradient" x1="380.07" y1="0.12" x2="380.07" y2="662.8" gradientTransform="translate(-0.04 -0.1)" gradientUnits="userSpaceOnUse"><stop offset="0" stop-color="#ff9997"/><stop offset="1" stop-color="#ff6e81"/></linearGradient><linearGradient id="linear-gradient-2" x1="380.13" y1="206.62" x2="380.13" y2="551.05" xlink:href="#linear-gradient"/></defs><title>Asset 25</title><g id="Layer_2" data-name="Layer 2"><g id="Layer_2-2" data-name="Layer 2"><path class="cls-1" d="M197.6,662.68q-51.48,0-102.94,0c-45.16,0-83.14-30.22-92.35-73.42A99.61,99.61,0,0,1,.16,568.59C0,455.41,0,338.36.06,220.7c0-53.1,40.19-93.54,93.39-94.07,10.42-.1,21.32-.15,33.31-.15,16.67,0,33.29.1,47.34.2h.28c12.21,0,21.36-6.3,25.77-17.73,4.6-11.93,9.49-24,14.22-35.78q2.56-6.35,5.12-12.7C235.13,21.49,266.83,0,308.76,0H449.23c44.64,0,75.68,21.08,92.26,62.67q2.94,7.38,5.91,14.76c4.21,10.47,8.56,21.3,12.68,31.95,4.23,10.93,13.39,17.19,25.12,17.19h.21c14.39-.08,29.49-.12,46.14-.12q17.09,0,34.18,0c25.65.07,49.44,9.71,67,27.17s27.21,41.1,27.25,66.61c.18,111,.18,228.39,0,348.89a94.55,94.55,0,0,1-20.8,59.2,91.69,91.69,0,0,1-52.82,32.12,111.43,111.43,0,0,1-21.84,2c-60.84.11-120.9.12-176.75.12H197.6ZM149,154c-17.8,0-36.09,0-54.36.08C56,154.19,27.92,181.92,27.88,220c-.1,112.27-.07,229.53.08,348.53a71,71,0,0,0,3.71,22.62c9.24,26.91,33.7,43.64,63.85,43.65h98.56l219.27,0q124.06,0,248.15,0h1.42c2.55,0,5.28,0,8.11-.15a62.24,62.24,0,0,0,38.42-15.53c15.24-13.22,22.95-30.82,22.92-52.31-.12-79.93-.12-161.2-.12-239.79q0-52.33,0-104.67a81.39,81.39,0,0,0-.84-13.17c-5.26-32.32-32.58-54.93-66.44-55q-25.85,0-51.69-.05c-22.77,0-44.14,0-65.06.1-7.34-18.56-14.83-37.24-22.1-55.37q-5.31-13.24-10.61-26.5c-12-30-33.47-44.59-65.65-44.6H310.35c-32.29,0-53.8,14.55-65.75,44.46Q239.46,85.09,234.28,98c-7.37,18.39-15,37.33-22.39,56.15C191.27,154,170.17,154,149,154Z"/><path class="cls-2" d="M380.13,550.93a172.22,172.22,0,1,1-.21-344.43h.36c95.18.2,172.59,77.59,172.56,172.53,0,94.74-77.47,171.85-172.62,171.9Zm-.28-316.87c-79.85.17-144.77,65.11-144.72,144.78s65,144.47,144.8,144.47h.26a144.88,144.88,0,0,0,144.86-145c-.2-79.51-65.2-144.2-144.89-144.2Z"/></g></g></svg>