<svg xmlns="http://www.w3.org/2000/svg" viewBox="0 0 800.1 702.68"><defs><style>.cls-1{fill:#606060;}</style></defs><title>Asset 20</title><g id="Layer_2" data-name="Layer 2"><g id="Layer_2-2" data-name="Layer 2"><path class="cls-1" d="M400.1,702.66q-142.73,0-285.45,0c-54.43,0-100.74-36.89-111.9-89.24A120.07,120.07,0,0,1,.16,588.62q-.25-174-.1-347.94c.05-64,49.12-113.41,113.2-114,27-.26,54-.14,81,.05,4,0,5.82-1.21,7.25-4.93,6.29-16.31,12.92-32.5,19.44-48.73C239.56,26.59,278.78,0,328.75,0H469.23c52.93,0,91.2,26,110.84,75.26,6.23,15.63,12.59,31.21,18.66,46.89,1.29,3.33,3,4.44,6.56,4.42q40.25-.22,80.49-.07c64,.17,114.09,49.88,114.18,113.75q.28,174.48,0,348.94c-.07,54.15-37.39,100.23-89.62,110.9a131.22,131.22,0,0,1-25.8,2.45Q542.33,702.8,400.1,702.66ZM400,634.79q140.75,0,281.49,0c2.83,0,5.67,0,8.49-.13A42.5,42.5,0,0,0,716.35,624c11.34-9.84,16-22.22,16-37.18q-.25-172.24-.13-344.48a62.52,62.52,0,0,0-.58-10c-3.71-22.78-22.45-38.16-46.73-38.21q-62.5-.12-125,.08c-3.95,0-5.78-1.14-7.25-4.9-11.78-29.91-23.82-59.72-35.75-89.57-9-22.57-22.86-32-47.08-32q-69.75,0-139.5,0c-24.31,0-38.21,9.43-47.18,31.88-11.87,29.7-23.85,59.35-35.55,89.12-1.59,4.06-3.5,5.42-7.9,5.4q-62.49-.27-125-.07c-27.29.09-46.82,19.12-46.85,46Q67.73,414.26,68,588.5a50.94,50.94,0,0,0,2.63,16.16c6.49,18.9,23.5,30.13,44.93,30.14Q257.77,634.83,400,634.79Z"/><path class="cls-1" d="M592.84,399c0,105.66-86.54,191.85-192.61,191.9S207.37,504.49,207.39,398.65,294.28,206.28,400.32,206.5C506.68,206.72,592.88,292.93,592.84,399ZM400.15,523.31c69.16-.12,125.07-56.08,124.9-125-.17-68.65-56.31-124.39-125.16-124.25s-124.8,56.23-124.76,124.77S331.55,523.43,400.15,523.31Z"/></g></g></svg>