<svg xmlns="http://www.w3.org/2000/svg" viewBox="0 0 358 358"><defs><style>.cls-1{fill:#969696;stroke:#969696;stroke-miterlimit:10;}</style></defs><title>Asset 45</title><g id="Layer_2" data-name="Layer 2"><g id="Layer_1-2" data-name="Layer 1"><path class="cls-1" d="M148.32.5h61.36C241,8.12,270.17,20.07,295.14,41.29c33.44,28.43,52.67,64.89,62.36,107v61.36c-7.53,30.86-19.22,59.66-39.92,84.4-28.5,34-65.25,53.65-107.9,63.42H148.32c-32.75-7.95-63-20.77-88.57-43.56C28.13,285.78,9.78,250.38.5,209.68V148.32C7.13,122.2,15.92,97.09,31.94,74.9,61,34.67,100.54,11.24,148.32.5ZM328.24,179.09c.17-81.26-68.41-149.77-149.49-149.33S31.05,96.45,29.75,178.2c-1.29,80.47,66.93,149.25,148.8,150C259.38,329,328.08,260.57,328.24,179.09Z"/><path class="cls-1" d="M179.37,270.63c-31.17-1.42-52.87-15.15-69.86-37.06-6.05-7.8-7.42-16.56,1-23.5,8.64-7.11,16.38-3.36,22.94,4.15,1.83,2.09,3.63,4.22,5.56,6.22,24.65,25.39,54.72,25.21,79-.65,8-8.47,15.1-19.73,28.59-9.19,9,7.05,6.77,17.36-6.11,31C223.19,259.94,202.22,270.44,179.37,270.63Z"/><path class="cls-1" d="M257.94,132.74a18.47,18.47,0,0,1-18.14,18.88c-9.86.1-18.79-8.58-19-18.41s8.68-18.72,18.49-18.89A18.47,18.47,0,0,1,257.94,132.74Z"/><path class="cls-1" d="M136,132.33a18.82,18.82,0,0,1-17.76,19.28c-10,.36-18.67-7.88-19-18A18.72,18.72,0,0,1,117,114.35C127,114,135.69,122.23,136,132.33Z"/></g></g></svg>