<svg xmlns="http://www.w3.org/2000/svg" viewBox="0 0 145.73 143.96"><defs><style>.cls-1{fill:#969696;stroke:#969696;stroke-miterlimit:10;}</style></defs><title>Asset 40</title><g id="Layer_2" data-name="Layer 2"><g id="Layer_1-2" data-name="Layer 1"><path class="cls-1" d="M.5,138.71C4.32,126,8.19,113.33,12,100.62q9.18-30.93,18.21-61.89a6.32,6.32,0,0,1,4.94-4.79Q65.1,25.63,95,17a13.27,13.27,0,0,0,5.11-3C104.16,10.23,108,6.2,112,2.24c2-2,4.18-2.46,6.22-.43,8.82,8.76,17.54,17.63,26.29,26.47a10.73,10.73,0,0,1,.77,1v2.57c-4.4,4.52-8.9,8.93-13.14,13.59a15.64,15.64,0,0,0-3.47,5.9q-9.23,31.54-18.13,63.19c-.75,2.63-2,4.27-4.78,4.93Q56.3,131.23,6.93,143.15c-2.87.7-5.07.33-6.43-2.51Zm18.21-8,.71.87a17.55,17.55,0,0,0,2.06-.24c26.19-6.3,52.37-12.64,78.58-18.85a4.15,4.15,0,0,0,3.52-3.43q9.3-32.72,18.82-65.37a3.67,3.67,0,0,0-1.08-4.24c-4.92-4.78-9.81-9.6-14.52-14.58-1.57-1.65-3-1.85-5-1.26Q71.43,32.36,41,40.91a5.54,5.54,0,0,0-4.4,4.3c-5.93,20.44-12,40.84-18,61.25-1.81,6.13-3.6,12.26-5.58,19a18.43,18.43,0,0,0,1.56-1.19Q33.81,104.68,53,85a4.13,4.13,0,0,0,.71-3.29c-1.31-5.59.83-11,5.65-13.8a12.13,12.13,0,0,1,16.7,16.33c-2.59,4.77-8.12,7.49-13.32,6-2.32-.68-3.5,0-4.95,1.49Q42,108,26.06,124.08C23.74,126.43,21.16,128.51,18.71,130.71ZM135.12,30.93,115,10.7l-5.07,5.14L130,35.71ZM69.51,78.32c-.29-2.26-1.52-3.9-4.05-3.91a4.05,4.05,0,0,0-.06,8.1C67.84,82.52,69.27,81,69.51,78.32Z"/></g></g></svg>