<svg xmlns="http://www.w3.org/2000/svg" viewBox="0 0 389.8 288.63"><defs><style>.cls-1{fill:#1380a0;}</style></defs><title>Asset 48</title><g id="Layer_2" data-name="Layer 2"><g id="Layer_1-2" data-name="Layer 1"><path class="cls-1" d="M195.62,0q82.77,0,165.54,0c22.39,0,28.56,6,28.58,28.08q.12,115.57,0,231.16c0,22.83-6.46,29.29-29.26,29.3q-165.55.1-331.09,0c-22.85,0-29.3-6.45-29.33-29.24Q-.06,143.76.06,28.18C.09,6.09,6.24.07,28.58,0Q112.1-.06,195.62,0ZM368.16,108.56c0-27.57-.46-50.37.18-73.14.35-12.7-5.16-16.31-17-16.07-27.85.55-55.71.17-83.57.17H39.41c-8.58,0-17.71-1-17.7,12q.06,82.08,0,164.16c0,8.65,3.51,9.65,9.73,4.46,8.78-7.33,17.48-14.76,26.22-22.14,28.12-23.75,55.93-47.88,84.46-71.12,19.57-15.93,34.65-15.32,53.76,0,3.1,2.5,6.16,5.07,9.44,7.3,13.58,9.19,23,8.4,34.32-3.48C251.27,98.49,262.67,86,273.94,73.38c18.07-20.19,28.71-21.33,49.18-4.12C337.12,81,350.69,93.27,368.16,108.56Z"/><path class="cls-1" d="M115.26,84.47c0,18.12-15.12,33.34-33.11,33.35-17.66,0-33-15.44-33.28-33.5-.27-17.51,15.61-33.18,33.5-33.08A32.71,32.71,0,0,1,115.26,84.47Z"/></g></g></svg>