<svg xmlns="http://www.w3.org/2000/svg" viewBox="0 0 135.08 134.94"><defs><style>.cls-1{fill:#969696;stroke:#969696;stroke-miterlimit:10;}</style></defs><title>Asset 39</title><g id="Layer_2" data-name="Layer 2"><g id="Layer_1-2" data-name="Layer 1"><path class="cls-1" d="M113.06,52.65C92,73.73,70.54,94.79,49.56,116.27,44,122,38,125.65,30.08,127.11c-9.41,1.75-18.65,4.48-29.39,7.14,3.57-14.1,6.8-27.07,10.19-40,.31-1.18,1.55-2.17,2.49-3.11Q47.15,57.33,81,23.56a15.91,15.91,0,0,1,1.71-1.36Zm-96.2,49c-1.55,4.48-3.2,9.23-4.84,14l2.54-1.88L21,122.51l13.14-4.72Z"/><path class="cls-1" d="M119.53,46.85,88.05,15.28,101.43,3.09c3.82-3.46,7.8-3.46,11.43,0Q122.64,12.54,132,22.3c3.51,3.67,3.33,7.69-.17,11.43C127.87,38,123.84,42.27,119.53,46.85Z"/></g></g></svg>