<svg xmlns="http://www.w3.org/2000/svg" viewBox="0 0 799.43 692.35"><defs><style>.cls-1{fill:#606060;}</style></defs><title>Asset 14</title><g id="Layer_2" data-name="Layer 2"><g id="Layer_2-2" data-name="Layer 2"><path class="cls-1" d="M399.9,692.33q-146.5,0-293,0c-48,0-90.23-31.4-102.76-76.91A113.42,113.42,0,0,1,.22,585.83q-.37-186.51-.11-373c.08-52.54,36.4-95.46,88.08-104.7a107.9,107.9,0,0,1,18.4-1.48q44.25-.22,88.51,0c3.51,0,5.18-.93,6.43-4.37,6.11-16.9,12.5-33.71,18.87-50.52C231.54,22.37,261.81.41,293.19.26q106.5-.51,213,0C537.59.42,567.75,22.33,579,51.79c6.21,16.34,12.51,32.65,18.3,49.13,1.63,4.65,3.92,5.78,8.55,5.75q44-.32,88-.08a106,106,0,0,1,103,83,109.82,109.82,0,0,1,2.47,23.29q.23,186.51.08,373c0,53.29-38.22,97.38-91,105.35a118.17,118.17,0,0,1-17.45,1.06Q545.41,692.38,399.9,692.33ZM586.24,399.5c1.53-102.39-86.45-186.59-186.12-186.8-102.18-.2-187.21,86.66-187.36,186.39-.14,100.79,85.63,187,186.71,187.06C499.16,586.25,587.66,502.29,586.24,399.5Z"/><path class="cls-1" d="M399.3,519.3a119.64,119.64,0,0,1-119.61-120c.09-66.84,53.64-119.87,120.85-119.69,66.22.17,119.15,53.75,119,120.43A119.37,119.37,0,0,1,399.3,519.3Z"/></g></g></svg>