<svg xmlns="http://www.w3.org/2000/svg" viewBox="0 0 357 357"><defs><style>.cls-1{fill:#fc4266;}</style></defs><title>Asset 55</title><g id="Layer_2" data-name="Layer 2"><g id="Layer_1-2" data-name="Layer 1"><path class="cls-1" d="M147.82,0h61.36c31.34,7.62,60.49,19.57,85.46,40.79,33.44,28.43,52.67,64.89,62.36,107v61.36c-7.53,30.86-19.22,59.66-39.92,84.4-28.5,34-65.25,53.65-107.9,63.42H147.82c-32.75-7.95-63-20.77-88.57-43.56C27.63,285.28,9.28,249.88,0,209.18V147.82C6.63,121.7,15.42,96.59,31.44,74.4,60.46,34.17,100,10.74,147.82,0ZM327.74,178.59c.17-81.26-68.41-149.77-149.49-149.33S30.55,96,29.25,177.7C28,258.17,96.18,327,178.05,327.74,258.88,328.51,327.58,260.07,327.74,178.59Z"/><path class="cls-1" d="M178.87,270.13C147.7,268.71,126,255,109,233.07c-6.05-7.8-7.42-16.56,1-23.5,8.64-7.11,16.38-3.36,22.94,4.15,1.83,2.09,3.63,4.22,5.56,6.22,24.65,25.39,54.72,25.21,79-.65,8-8.47,15.1-19.73,28.59-9.19,9,7.05,6.77,17.36-6.11,31C222.69,259.44,201.72,269.94,178.87,270.13Z"/><path class="cls-1" d="M257.44,132.24a18.47,18.47,0,0,1-18.14,18.88c-9.86.1-18.79-8.58-19-18.41S229,114,238.84,113.82A18.47,18.47,0,0,1,257.44,132.24Z"/><path class="cls-1" d="M135.53,131.83a18.82,18.82,0,0,1-17.76,19.28c-10,.36-18.67-7.88-19-18a18.72,18.72,0,0,1,17.74-19.25C126.45,113.48,135.19,121.73,135.53,131.83Z"/></g></g></svg>