<svg xmlns="http://www.w3.org/2000/svg" viewBox="0 0 405.41 362.65"><defs><style>.cls-1{fill:#fc4266;}</style></defs><title>Asset 56</title><g id="Layer_2" data-name="Layer 2"><g id="Layer_1-2" data-name="Layer 1"><path class="cls-1" d="M.09,324.24c-.62-6.52,2.45-13,4.63-19.65C14.8,273.93,25,243.3,35.14,212.65c2.64-8,3.22-8.72,12.6-9.33,21.08-1.37,42.17-2.5,63.25-3.75,25.45-1.5,50.88-3.07,76.33-4.54,19.64-1.12,39.28-2.08,58.92-3.21q21.52-1.23,43.05-2.73c4.92-.35,7.47-3,7.59-7.39s-1.91-7.62-7.25-8.12q-11.94-1.11-23.95-1.77c-31.27-1.73-62.55-3.33-93.82-5.08q-59.18-3.3-118.35-6.76c-15.24-.87-15.27-.84-19.59-13.83Q18,98.1,2.07,50C-3.25,33.92,1.8,18.25,15.83,8.61,31.09-1.86,47.27-2.52,64.46,5.21,115.33,28.1,166.35,50.74,217.29,73.52q82,36.67,164,73.48c15.85,7.14,24.29,18.66,24.17,34.6-.12,15.73-8.62,27-24.27,34.05q-68.06,30.56-136.22,60.89-91.51,41-183,82C33.8,371.23.13,352.89.09,324.24Z"/></g></g></svg>