<svg xmlns="http://www.w3.org/2000/svg" viewBox="0 0 406.41 363.65"><defs><style>.cls-1{fill:#969696;stroke:#969696;stroke-miterlimit:10;}</style></defs><title>Asset 46</title><g id="Layer_2" data-name="Layer 2"><g id="Layer_1-2" data-name="Layer 1"><path class="cls-1" d="M.59,324.74c-.62-6.52,2.45-13,4.63-19.65,10.08-30.66,20.3-61.29,30.42-91.94,2.64-8,3.22-8.72,12.6-9.33,21.08-1.37,42.17-2.5,63.25-3.75,25.45-1.5,50.88-3.07,76.33-4.54,19.64-1.12,39.28-2.08,58.92-3.21q21.52-1.23,43.05-2.73c4.92-.35,7.47-3,7.59-7.39s-1.91-7.62-7.25-8.12q-11.94-1.11-23.95-1.77c-31.27-1.73-62.55-3.33-93.82-5.08q-59.18-3.3-118.35-6.76c-15.24-.87-15.27-.84-19.59-13.83Q18.47,98.6,2.57,50.53C-2.75,34.42,2.3,18.75,16.33,9.11,31.59-1.36,47.77-2,65,5.71,115.83,28.6,166.85,51.24,217.79,74q82,36.67,164,73.48c15.85,7.14,24.29,18.66,24.17,34.6-.12,15.73-8.62,27-24.27,34.05Q313.58,246.71,245.42,277q-91.51,41-183,82C34.3,371.73.63,353.39.59,324.74Z"/></g></g></svg>