<svg xmlns="http://www.w3.org/2000/svg" viewBox="0 0 148.7 109.27"><defs><style>.cls-1{fill:#ff6e83;}</style></defs><title>Asset 27</title><g id="Layer_2" data-name="Layer 2"><g id="Layer_2-2" data-name="Layer 2"><path class="cls-1" d="M128.18,0H20.52C5.54,0-4.38,17,1.94,31.89L21,76.72c3.59,8.45,11.58,13.58,20.07,12.91l28.23-2.26L72.9,104.2c0,4.46,4.74,6.58,7.57,3.87a4.9,4.9,0,0,0,1-1.34L91.87,85.31l26.7-1.84c8.38-.67,15.54-6.87,18.06-15.65l11.11-38.66C151.89,14.71,142,0,128.18,0ZM83.54,51.8a78.65,78.65,0,0,1-7.49,6.68c-1.21,1-2.46,2-3.66,3l-6.48,5.61-1.32,1.14a77.06,77.06,0,0,0-9.85-8.15L52.5,58.46c-3.93-3-7.63-6-9.73-10.31a14.22,14.22,0,0,1,0-13.54,10.19,10.19,0,0,1,9.07-5.75,10.45,10.45,0,0,1,7.17,3,30.51,30.51,0,0,1,2.44,2.75c.4.5.82,1,1.27,1.52l1.82,2.12L66.25,36c.21-.28.42-.58.63-.88.43-.61.87-1.23,1.33-1.78s.87-1,1.3-1.43c2.22-2.21,4.4-3.26,6.76-3.26a9.33,9.33,0,0,1,2.17.27C83.32,30,86.24,33,87.35,38a14.6,14.6,0,0,1-2.88,12.76C84.18,51.1,83.87,51.45,83.54,51.8Zm32.13-10c-3.42,3.63-7.53,6.61-11.32,9.88-3.12,2.69-6.23,5.39-9.43,8.17a53.43,53.43,0,0,0-8.66-7.74,16.71,16.71,0,0,0,3.26-14.57C88.23,31.74,84.69,28.07,79,26.7A10.58,10.58,0,0,0,69.39,29a16.79,16.79,0,0,1,2-7A12.3,12.3,0,0,1,91.1,18.63c1.39,1.31,2.53,2.89,3.86,4.42.65-.88,1.3-1.87,2.06-2.78,3.25-3.87,7.12-6.41,12.44-5.14,5.74,1.36,9.28,5,10.57,10.78A16.81,16.81,0,0,1,115.67,41.75Z"/></g></g></svg>